<?xml version="1.0" encoding="utf-8"?>
<!-- Generator: Adobe Illustrator 18.0.0, SVG Export Plug-In . SVG Version: 6.00 Build 0)  -->
<!DOCTYPE svg PUBLIC "-//W3C//DTD SVG 1.1//EN" "http://www.w3.org/Graphics/SVG/1.1/DTD/svg11.dtd">
<svg version="1.1" id="Layer_1" xmlns="http://www.w3.org/2000/svg" xmlns:xlink="http://www.w3.org/1999/xlink" x="0px" y="0px"
	 viewBox="0 0 1440 810" enable-background="new 0 0 1440 810" xml:space="preserve">
<path fill-rule="evenodd" clip-rule="evenodd" fill="#D1A142" d="M628.9,448.8v-19.8h2v17.8h136v-38.5h2v40.5H628.9z M628.9,400.4
	v-31.7h140v4.2h-2v-2.2h-136v29.7H628.9z"/>
<g>
	<path fill="#D1A142" d="M651.3,395.6c2.7-0.6,4.3-0.5,4.7,0.3l9.3-2.4l0.9-0.7l0.1,0c1.5-0.1,2.5,0.3,2.9,1.1l0.1,0.2
		c-0.9,1.9-2.8,4.9-5.9,9l-0.3,0.1L663,403l-0.1-0.3l1.3-6c-2,0.2-4.8,0.9-8.5,2.1c-1.1,0.3-2.3,1.9-3.6,4.7
		c-1.5,1.8-3.7,6.6-6.6,14.4l-0.1,0.2l0.1,0.1c6.4-2.5,11-4.4,13.8-5.8c1.1,0.2,1.8,0.6,2.1,1.2l0.1,0.2c-0.8,2-2.3,3.9-4.5,5.7
		l-0.2-0.1l-0.1-0.1c-0.1-0.2,0.1-1.1,0.5-2.9l-0.1-0.1l-1.4,0.4c-7.9,2.7-11.8,4.3-11.5,4.8c-2.2,7.6-2.5,12.9-0.8,15.9l0.1,0.3
		c0.4,0.7,1.3,1.1,2.7,1.3c0.1,0.1-0.1,0.3-0.6,0.6c-1.8,0.6-3.9-0.2-6.2-2.3l-0.7-0.9c-1.5-2.7-1.7-6.9-0.5-12.8l-0.9,0.4l-0.7,0.2
		c-2.3,0.5-3.8,0.2-4.4-0.9l0.1,0l1.6-0.3l0.3-0.1c3.7-1.1,5.3-2,4.9-2.7c3.1-9.1,5.6-15.1,7.5-18.2l-0.3,0.1
		c-2.6,0.8-6.8,3.1-12.7,6.9c-5.8,5-8,8.7-6.6,11.1l0.3,0.5c0.3,0.6,1.4,1.1,3.3,1.5l-0.2,0.5c-4.3,0.7-7.2-0.1-8.7-2.7
		c-1.8-3.2,0.6-7.3,7.3-12.4c5.7-3.9,12.1-6.9,19-9l2.1-2.5L651.3,395.6z"/>
	<path fill="#D1A142" d="M670.3,408.7l0.4-0.1c1.8,0,3.8,0.9,6,2.7l0.5,0.7c0.7,1.7,0.6,2.7-0.1,2.9l-0.2-0.1l-0.1-0.1
		c0-0.8-0.1-1.5-0.3-1.9l-0.1-0.1c-0.5-0.8-1.5-1-3.2-0.5c-4,1.2-7.1,5.2-9.4,12c-0.6,3.2-0.6,5.4,0.1,6.5c2.4-5.2,4.8-9.2,7.3-12.1
		c-0.1-0.2,0.2-0.5,1-0.9c0.9-0.3,2.1,0.1,3.8,1.2l0.1,0.1c-0.7,0.2-0.7,2-0.2,5.5l1,2.2c0.7,1.1,1.7,1.9,3.1,2.2l0.1,0.2l-0.4,0.1
		c-1.7,0.5-3.5,0-5.2-1.5l-1.5-1.7c-0.7-1.3-1.2-2.9-1.5-5l-0.1,0c-1.2,1.3-2.9,4.6-5,10.1c-0.5,2.2-0.9,3.4-1.3,3.5
		c-0.9,0.3-2.4-0.5-4.3-2.2l-0.2-0.3c-2.4-4.1-1.6-9.7,2.3-16.8C665,411.7,667.5,409.5,670.3,408.7z"/>
	<path fill="#D1A142" d="M683,404.7c2.3,0,3.7,0.5,4.2,1.3c0.5,0.8-0.4,5-2.8,12.6c4.7-9.7,7.9-14.9,9.5-15.5
		c0.2-0.1,0.3-0.1,0.5-0.1c2.3,0,3.7,0.5,4.3,1.5c0.2,0.4-0.3,2.5-1.5,6.3c-0.9,4.4-0.9,7.6,0.2,9.5c0.9,1.6,2,2.2,3.1,1.9
		c0.1,0,0.1,0.1,0.1,0.1c0,0.5-0.3,0.8-1.1,1.1l-0.1,0c-2.6,0.4-4.7-0.6-6.3-3l-0.3-0.5c-1.5-2.6-1.5-6.9-0.1-12.8l0-0.3l-0.1,0.1
		c-2.4,3.2-5.3,9.1-8.9,17.6c-0.4,1.8-0.6,2.9-0.6,3.2c0.1,0.4,0.2,0.6,0.5,0.8c-2.2,0.4-3.7,0.1-4.4-1.1l-0.3-0.7
		c-0.5-0.8-0.1-4.1,1-9.7l1.9-9.7l-0.1-0.1l-0.1,0c-1.5,1.9-2.4,2.8-2.5,3s-0.4,0.2-0.5,0.1c-0.2-0.1-0.2-0.3-0.2-0.7
		C680,406.9,681.5,405.2,683,404.7z"/>
	<path fill="#D1A142" d="M723.6,375.6c1-0.3,2.7,0.3,5.1,1.7l0.1,0.2c1.3,2.6-2,11-9.8,25.2c-1,5.2-0.8,9,0.7,11.5
		c0.8,1.4,1.7,1.9,2.8,1.6l0.2,0.3l-0.8,0.2c-1.9,0.6-3.8-0.3-5.8-2.7l-0.3-0.6c-0.7-1.2-1.2-2.5-1.4-4c-2,6.5-3.9,10.2-5.7,11.1
		c-1.7,0.5-3.8-0.3-6.4-2.4l-0.5-0.9c-1.8-3.1-1.4-7.4,1.1-13c2.2-4.3,4.6-6.8,7.3-7.7c0.8-0.2,2.3,0.3,4.3,1.7l0.1,0.2l1.9-8.9
		C719.3,380.8,721.6,376.2,723.6,375.6z M718.7,399.6l0.1,0c4.7-9.8,7.4-16.3,7.9-19.5V379l-0.1,0c-1.6,2.2-3.5,6.3-5.8,12.2
		C719.2,396.4,718.5,399.2,718.7,399.6z M705.5,417.7c0.3,0.3,0.6,0.4,0.9,0.4c1.9-1.3,4.5-5.7,7.6-13.3c0.6-2.3,0.7-4,0.3-5.1
		c-0.3-0.3-0.6-0.4-1.1-0.2l-0.5,0.2c-3.1,1-5.7,4.7-7.7,11.3C704.4,413.9,704.6,416.2,705.5,417.7z"/>
	<path fill="#D1A142" d="M731.8,389.8c1.4-0.4,3.6,0.4,6.8,2.6l0.2,0.1l0.1,0.1c1.2,2.1-0.3,5-4.5,8.5c-1.2,0.8-2.2,1.4-3.1,1.6
		c-1.2,0.3-1.8,0.2-2-0.1c0.1-0.2,0.9-0.8,2.5-1.7c2.9-3.5,4.1-6.4,3.5-8.6l-0.1,0c-2.3,1.2-4.7,4.4-7.2,9.6
		c-1.2,3.6-1.3,6.1-0.4,7.7c0.9,1.1,1.8,1.5,2.8,1.1c2.1-0.8,4.6-3.8,7.5-8.9l0-0.2l0.1,0l0.2,0.1l0.1,0.1c0.3,2-1.1,5.1-4.1,9.5
		c-0.8,0.8-1.5,1.3-1.9,1.4c-2.1,0.7-4.5-0.1-7.2-2.3l-1.2-1.2c-2.2-3.9-0.9-9.3,3.8-16.2C729.4,391.2,730.7,390.1,731.8,389.8z"/>
	<path fill="#D1A142" d="M749.6,384.3l0.1-0.1c1-0.3,3,0.4,5.8,2.2l0.1,0.2c-1.6,3.2-3,5.3-4.1,6.5l-0.1,0c-0.2-0.3,0.1-2.3,0.9-5.9
		l-0.1,0c-4.1,3.5-6.6,7.8-7.4,12.8c-0.1,1.7,0.1,3,0.6,3.9l0.1,0.2c0.8,0.9,1.7,1.2,2.6,0.9c2.3-1,4.8-3.9,7.4-8.9l0.6,0.2
		c-0.1,2.6-1.5,5.6-4,9.1c-0.7,0.9-1.5,1.5-2.3,1.8c-1.9,0.6-4.4-0.3-7.4-2.6l-0.7-1l-0.2-0.3c-1.8-3.2-0.9-8,2.9-14.4
		C746.5,386.3,748.3,384.7,749.6,384.3z"/>
	<path fill="#D1A142" d="M767,378c1.2-0.4,3.4,0.3,6.5,2.1c0.5,0.5,0.5,0.8,0,0.9c-1.3-0.3-2.3-0.3-3.1,0c-3.7,1.1-6.6,4.9-8.7,11.2
		c-0.6,2.9-0.4,5.3,0.5,7l0.2,0.4c0.5,0.8,1.4,1,2.7,0.8c3-0.9,5.2-5.1,6.5-12.4c0.1-1.6-0.2-3.1-0.9-4.3c-0.2-0.3-0.7-0.5-1.5-0.7
		l-0.1-0.1c-0.1-0.2,0-0.4,0.4-0.6s0.8-0.4,1.4-0.5c1.6-0.3,3,0.3,4.1,1.9c2.3,3.4,1.5,8.1-2.6,14.3c-1.8,2.3-3.5,3.7-5.1,4.2
		l-0.4,0.1c-2.2,0.8-4,0.8-5.4,0c-1.4-0.7-2.4-1.8-3.1-3.3l-0.3-0.5c-2.2-3.7-1.6-8.6,1.7-14.4C762.2,380.7,764.5,378.7,767,378z"/>
</g>
<g>
	<path fill="#D1A142" d="M720.9,432.7h1.1v-1.5h3.2v1.5h1.1v-2.4h-0.7v-4.3h-2.8c-0.2,1-0.4,1.9-0.6,2.6c-0.2,0.7-0.5,1.3-0.9,1.7
		h-0.3V432.7z M724.4,430.2h-2v0c0.2-0.3,0.3-0.6,0.5-0.9c0.1-0.3,0.3-0.7,0.4-1.2c0.1-0.4,0.2-0.9,0.3-1.3h0.9V430.2z"/>
	<polygon fill="#D1A142" points="728.2,431.2 731.2,431.2 731.2,430.2 729.3,430.2 729.3,429 730.9,429 730.9,428 729.3,428 
		729.3,426.8 730.9,426.8 731.2,425.9 728.2,425.9 	"/>
	<path fill="#D1A142" d="M733.3,431.2h1.1v-2.2h0.7c0.1,0,0.1,0,0.2,0.1c0.1,0,0.1,0.1,0.2,0.2c0.1,0.1,0.1,0.2,0.2,0.3l0.8,1.7h1.3
		l-1.1-2.1c-0.1-0.2-0.2-0.3-0.3-0.4c-0.1-0.1-0.2-0.2-0.3-0.2v0c0.1-0.1,0.2-0.2,0.3-0.3c0.1-0.1,0.2-0.3,0.2-0.4
		c0.1-0.1,0.1-0.3,0.2-0.4c0.1-0.1,0.1-0.2,0.2-0.3c0-0.1,0.1-0.1,0.2-0.1c0.1,0,0.1-0.1,0.2-0.1c0.1,0,0.1,0,0.2,0
		c0.1,0,0.1,0,0.2,0.1v-1c-0.1,0-0.2-0.1-0.3-0.1s-0.2,0-0.3,0c-0.4,0-0.7,0.2-1,0.5c-0.1,0.1-0.1,0.3-0.2,0.4
		c-0.1,0.1-0.1,0.3-0.2,0.4c-0.1,0.1-0.1,0.3-0.2,0.4s-0.1,0.2-0.3,0.3c-0.1,0.1-0.2,0.1-0.4,0.1h-0.5v-2.2h-1.1V431.2z"/>
	<path fill="#D1A142" d="M742,431.2c0.4,0,0.8-0.1,1.1-0.2c0.3-0.1,0.6-0.3,0.9-0.6c0.2-0.2,0.4-0.5,0.6-0.9
		c0.1-0.3,0.2-0.7,0.2-1.1s-0.1-0.8-0.2-1.1c-0.1-0.3-0.3-0.6-0.6-0.9c-0.2-0.2-0.5-0.4-0.9-0.6c-0.3-0.1-0.7-0.2-1.1-0.2
		c-0.4,0-0.8,0.1-1.1,0.2c-0.3,0.1-0.6,0.3-0.8,0.5c-0.2,0.2-0.4,0.5-0.6,0.9c-0.1,0.3-0.2,0.7-0.2,1.1s0.1,0.8,0.2,1.1
		c0.1,0.3,0.3,0.6,0.6,0.9c0.2,0.2,0.5,0.4,0.8,0.6C741.2,431.2,741.6,431.2,742,431.2z M742,430.3c-0.3,0-0.6-0.1-0.8-0.2
		c-0.2-0.1-0.4-0.3-0.5-0.6c-0.1-0.3-0.2-0.6-0.2-1c0-0.4,0.1-0.7,0.2-1c0.1-0.3,0.3-0.5,0.5-0.6c0.2-0.1,0.5-0.2,0.8-0.2
		c0.3,0,0.6,0.1,0.8,0.2c0.2,0.1,0.4,0.3,0.5,0.6c0.1,0.3,0.2,0.6,0.2,1c0,0.4-0.1,0.7-0.2,1c-0.1,0.3-0.3,0.5-0.5,0.6
		C742.6,430.3,742.3,430.3,742,430.3z"/>
	<path fill="#D1A142" d="M746.7,431.2h1.1v-1.8h0.2c0.2,0,0.4,0,0.6-0.1s0.4-0.1,0.5-0.1c0.3-0.1,0.5-0.2,0.6-0.4
		c0.2-0.2,0.3-0.3,0.3-0.5c0.1-0.2,0.1-0.4,0.1-0.6c0-0.4-0.1-0.7-0.2-0.9c-0.1-0.3-0.4-0.5-0.7-0.6c-0.2-0.1-0.3-0.1-0.5-0.2
		c-0.2,0-0.4-0.1-0.7-0.1h-1.4V431.2z M747.8,428.5v-1.7h0.2c0.1,0,0.2,0,0.3,0c0.1,0,0.2,0,0.3,0.1c0.1,0.1,0.2,0.2,0.3,0.3
		c0.1,0.1,0.1,0.3,0.1,0.4c0,0.2,0,0.3-0.1,0.5c-0.1,0.1-0.2,0.2-0.3,0.3c-0.1,0-0.2,0.1-0.3,0.1c-0.1,0-0.2,0-0.3,0H747.8z"/>
	<path fill="#D1A142" d="M755,431.2h1l2.2-2.9c0.1-0.1,0.2-0.3,0.3-0.4c0.1-0.1,0.2-0.2,0.3-0.4h0c0,0.1,0,0.1,0,0.2
		c0,0.1,0,0.2,0,0.3s0,0.2,0,0.3v2.8h1.1v-5.3h-1.1l-2.1,2.8c-0.1,0.1-0.2,0.3-0.3,0.4c-0.1,0.1-0.2,0.2-0.3,0.4h0
		c0-0.1,0-0.2,0-0.3c0-0.1,0-0.2,0-0.3c0-0.1,0-0.2,0-0.3v-2.6H755V431.2z"/>
	<path fill="#D1A142" d="M706.9,439.8c0.4,0,0.7-0.1,1.1-0.2c0.3-0.1,0.6-0.3,0.9-0.5c0.2-0.2,0.4-0.5,0.5-0.9s0.2-0.7,0.2-1.1
		c0-0.4-0.1-0.8-0.2-1.1c-0.1-0.3-0.3-0.6-0.5-0.9c-0.2-0.2-0.5-0.4-0.9-0.6c-0.3-0.1-0.7-0.2-1.1-0.2c-0.4,0-0.8,0.1-1.1,0.2
		c-0.3,0.1-0.6,0.3-0.9,0.6c-0.2,0.2-0.4,0.5-0.5,0.9c-0.1,0.3-0.2,0.7-0.2,1.1c0,0.4,0.1,0.8,0.2,1.1c0.1,0.3,0.3,0.6,0.5,0.9
		c0.2,0.2,0.5,0.4,0.9,0.5S706.5,439.8,706.9,439.8z M706.9,438.9c-0.3,0-0.6-0.1-0.8-0.2c-0.2-0.1-0.4-0.3-0.5-0.6
		c-0.1-0.3-0.2-0.6-0.2-1c0-0.4,0.1-0.7,0.2-1c0.1-0.3,0.3-0.5,0.5-0.6c0.2-0.1,0.5-0.2,0.8-0.2s0.6,0.1,0.8,0.2
		c0.2,0.1,0.4,0.3,0.5,0.6c0.1,0.3,0.2,0.6,0.2,1c0,0.4-0.1,0.7-0.2,1c-0.1,0.3-0.3,0.5-0.5,0.6
		C707.5,438.9,707.2,438.9,706.9,438.9z"/>
	<path fill="#D1A142" d="M715.6,438.6c-0.2,0.1-0.4,0.2-0.6,0.3c-0.2,0.1-0.5,0.1-0.7,0.1c-0.3,0-0.6-0.1-0.9-0.2
		c-0.2-0.1-0.4-0.3-0.6-0.6c-0.1-0.3-0.2-0.6-0.2-0.9c0-0.2,0-0.5,0.1-0.7c0.1-0.2,0.2-0.4,0.3-0.6c0.1-0.2,0.3-0.3,0.5-0.4
		c0.2-0.1,0.5-0.1,0.7-0.1c0.3,0,0.5,0,0.7,0.1c0.2,0.1,0.5,0.1,0.7,0.3v-1c-0.2-0.1-0.4-0.1-0.6-0.2c-0.2-0.1-0.5-0.1-0.8-0.1
		c-0.4,0-0.8,0.1-1.2,0.2c-0.3,0.1-0.7,0.3-0.9,0.6c-0.3,0.3-0.4,0.5-0.6,0.9c-0.1,0.3-0.2,0.7-0.2,1.1c0,0.4,0.1,0.7,0.2,1.1
		c0.1,0.3,0.3,0.6,0.5,0.8c0.2,0.2,0.5,0.4,0.8,0.6c0.3,0.1,0.7,0.2,1.2,0.2c0.3,0,0.6,0,0.9-0.1c0.3-0.1,0.6-0.2,0.9-0.3
		L715.6,438.6z"/>
	<path fill="#D1A142" d="M717.8,439.8h1.8c0.3,0,0.6-0.1,0.8-0.1c0.2-0.1,0.4-0.2,0.6-0.4c0.2-0.1,0.3-0.3,0.3-0.5
		c0.1-0.2,0.1-0.4,0.1-0.6s0-0.4-0.1-0.6c-0.1-0.2-0.2-0.3-0.3-0.4c-0.1-0.1-0.3-0.2-0.5-0.3v0c0.1-0.1,0.3-0.2,0.3-0.3
		c0.1-0.1,0.2-0.2,0.2-0.4c0-0.1,0.1-0.3,0.1-0.4c0-0.2,0-0.3-0.1-0.5c-0.1-0.2-0.2-0.3-0.3-0.4c-0.1-0.1-0.3-0.2-0.5-0.3
		c-0.2-0.1-0.5-0.1-0.7-0.1h-1.7V439.8z M718.9,438.9v-1.3h0.7c0.3,0,0.5,0.1,0.6,0.2c0.1,0.1,0.2,0.3,0.2,0.5
		c0,0.2-0.1,0.4-0.2,0.5c-0.1,0.1-0.4,0.2-0.7,0.2H718.9z M718.9,436.6v-1.3h0.4c0.2,0,0.3,0,0.4,0.1c0.1,0.1,0.2,0.1,0.3,0.2
		s0.1,0.2,0.1,0.3c0,0.1,0,0.2-0.1,0.3s-0.1,0.2-0.3,0.2c-0.1,0.1-0.2,0.1-0.4,0.1H718.9z"/>
	<polygon fill="#D1A142" points="723.5,439.8 726.5,439.8 726.5,438.8 724.6,438.8 724.6,437.6 726.3,437.6 726.3,436.6 
		724.6,436.6 724.6,435.4 726.3,435.4 726.5,434.5 723.5,434.5 	"/>
	<polygon fill="#D1A142" points="728.7,439.8 734.8,439.8 734.8,441.3 735.9,441.3 735.9,438.8 735.2,438.8 735.2,434.5 
		734.1,434.5 734.1,438.8 732.5,438.8 732.5,434.5 731.4,434.5 731.4,438.8 729.8,438.8 729.8,434.5 728.7,434.5 	"/>
	<polygon fill="#D1A142" points="737.8,439.8 740.8,439.8 740.8,438.8 738.9,438.8 738.9,437.6 740.6,437.6 740.6,436.6 
		738.9,436.6 738.9,435.4 740.6,435.4 740.8,434.5 737.8,434.5 	"/>
	<polygon fill="#D1A142" points="743,439.8 744,439.8 744,437.6 746.4,437.6 746.4,439.8 747.5,439.8 747.5,434.5 746.4,434.5 
		746.4,436.6 744,436.6 744,434.5 743,434.5 	"/>
	<path fill="#D1A142" d="M749.8,439.8h1l2.2-2.9c0.1-0.1,0.2-0.3,0.3-0.4c0.1-0.1,0.2-0.2,0.3-0.3h0c0,0.1,0,0.1,0,0.2
		c0,0.1,0,0.2,0,0.3c0,0.1,0,0.2,0,0.3v2.8h1.1v-5.3h-1.1l-2.1,2.8c-0.1,0.1-0.2,0.3-0.3,0.4c-0.1,0.1-0.2,0.2-0.3,0.3h0
		c0-0.1,0-0.2,0-0.3s0-0.2,0-0.3s0-0.2,0-0.3v-2.6h-1.1V439.8z"/>
	<polygon fill="#D1A142" points="756.9,439.8 759.9,439.8 759.9,438.8 758,438.8 758,437.6 759.7,437.6 759.7,436.6 758,436.6 
		758,435.4 759.6,435.4 759.9,434.5 756.9,434.5 	"/>
</g>
</svg>
